<?xml version="1.0" standalone="no"?><!DOCTYPE svg PUBLIC "-//W3C//DTD SVG 1.1//EN" "http://www.w3.org/Graphics/SVG/1.1/DTD/svg11.dtd"><svg t="1776263424179" class="icon" viewBox="0 0 1024 1024" version="1.1" xmlns="http://www.w3.org/2000/svg" p-id="47963" xmlns:xlink="http://www.w3.org/1999/xlink" width="200" height="200"><path d="M855.04 101.888H171.52A125.44 125.44 0 0 0 46.08 227.328v455.68a125.44 125.44 0 0 0 125.44 124.928h302.08v34.304H257.024a39.936 39.936 0 1 0 0 79.872h512a39.936 39.936 0 0 0 0-79.872H552.96v-34.304h301.568a125.44 125.44 0 0 0 125.44-124.928v-455.68a125.44 125.44 0 0 0-124.928-125.44z m45.568 125.44v455.68a41.8816 41.8816 0 0 1-45.568 45.056H171.52a41.984 41.984 0 0 1-45.056-45.056v-455.68a41.984 41.984 0 0 1 45.056-45.568H855.04a41.984 41.984 0 0 1 45.568 45.568z" p-id="47964" fill="#ffffff"></path><path d="M728.576 252.928h-61.44v415.744h61.44V252.928zM253.952 421.376h-61.44v247.296h61.44V421.376zM491.008 373.248h-61.44v294.912h61.44V373.248zM609.792 507.392h-61.44v161.28h61.44V507.392zM847.36 557.056h-61.44v111.104h61.44v-111.104zM372.736 581.12h-61.44v87.552h61.44v-87.552z" p-id="47965" fill="#ffffff"></path></svg>