<?xml version="1.0" standalone="no"?><!DOCTYPE svg PUBLIC "-//W3C//DTD SVG 1.1//EN" "http://www.w3.org/Graphics/SVG/1.1/DTD/svg11.dtd"><svg t="1776260811311" class="icon" viewBox="0 0 1024 1024" version="1.1" xmlns="http://www.w3.org/2000/svg" p-id="8373" xmlns:xlink="http://www.w3.org/1999/xlink" width="200" height="200"><path d="M491.264 172.817067a286.378667 286.378667 0 0 1 103.936 19.182933 264.055467 264.055467 0 0 1 82.705067 50.653867l1.3312 1.365333 2.730666 2.048a190.805333 190.805333 0 0 1 63.2832 84.206933 197.973333 197.973333 0 0 1 15.018667 63.5904v14.370134a149.435733 149.435733 0 0 0 16.7936 78.882133 372.258133 372.258133 0 0 0 18.1248 36.898133 56.661333 56.661333 0 0 0-26.350933 35.805867 367.616 367.616 0 0 0-4.334934 16.349867c-2.628267 10.9568-5.4272 23.893333-8.055466 36.1472a98.065067 98.065067 0 0 0-1.4336 8.123733 52.053333 52.053333 0 0 0-16.7936 81.92 97.5872 97.5872 0 0 0-5.4272 42.9056h-74.5472c-57.378133 0-106.0864 38.741333-135.918934 107.144533-4.7104 0.4096-9.489067 0.7168-14.199466 0.955734h-40.209067a375.466667 375.466667 0 0 1-164.488533-48.093867 119.0912 119.0912 0 0 0 22.1184-44.373333 198.7584 198.7584 0 0 0-16.622934-141.175467 38.877867 38.877867 0 0 0-2.389333-3.925333c-49.3568-72.942933-75.093333-117.76-76.151467-186.402134v-2.8672a514.730667 514.730667 0 0 1-1.365333-27.716266 176.708267 176.708267 0 0 1 19.899733-81.3056A234.7008 234.7008 0 0 1 304.110933 243.029333a264.465067 264.465067 0 0 1 83.592534-51.2 290.7136 290.7136 0 0 1 103.560533-18.773333m0-51.2c-173.226667 0-313.5488 119.466667-313.5488 277.128533 0 10.5472 1.536 31.470933 1.536 31.470934 1.194667 68.266667 23.074133 122.88 84.923733 214.1184a144.861867 144.861867 0 0 1 11.3664 105.813333 89.736533 89.736533 0 0 1-20.48 33.621333 37.546667 37.546667 0 0 0 8.226134 56.900267 425.8816 425.8816 0 0 0 203.502933 63.761067h42.8032q20.2752-0.989867 39.970133-3.754667a16.384 16.384 0 0 0 13.175467-10.786133c10.478933-29.559467 39.560533-93.559467 95.812267-93.559467h83.490133a89.838933 89.838933 0 0 0 27.306667-5.188267 22.9376 22.9376 0 0 0 2.935466-1.365333 50.0736 50.0736 0 0 0 11.912534-48.64 46.216533 46.216533 0 0 1 12.936533-37.956267 20.855467 20.855467 0 0 0 6.826667-13.346133v-1.774933a29.422933 29.422933 0 0 0-27.0336-19.797334 0.955733 0.955733 0 0 1 0.238933-1.8432 37.546667 37.546667 0 0 0 20.48-5.666133 17.066667 17.066667 0 0 0 8.635733-13.824v-1.4336a12.4928 12.4928 0 0 0 0-1.9456 58.88 58.88 0 0 1 0.4096-20.753067 381.201067 381.201067 0 0 1 13.653334-54.340266c60.142933-2.321067 48.0256-28.7744 44.100266-35.293867a13.277867 13.277867 0 0 0-1.672533-2.2528 236.612267 236.612267 0 0 1-38.6048-64.477867 135.099733 135.099733 0 0 1-12.6976-73.762133 260.130133 260.130133 0 0 0-97.962667-187.323733 328.8064 328.8064 0 0 0-222.173866-84.036267z m0 0l130.286933 157.7984" fill="#515151" p-id="8374"></path><path d="M519.355733 234.1888a24.746667 24.746667 0 0 1 0 49.4592 24.200533 24.200533 0 0 1-11.3664-2.7648l-6.2464-3.413333-3.618133-6.0416a24.6784 24.6784 0 0 1 21.230933-37.546667m-169.198933 116.224a40.96 40.96 0 0 1 28.910933 11.844267l6.212267 6.109866 3.208533 8.021334a40.584533 40.584533 0 0 1 2.935467 15.2576 41.8816 41.8816 0 0 1-0.580267 6.826666l-1.399466 8.533334-4.778667 7.2704a41.233067 41.233067 0 1 1-34.5088-63.863467m216.849067 117.077333a24.746667 24.746667 0 1 1-24.746667 24.746667v-1.672533l0.477867-6.826667L546.6624 477.866667a24.814933 24.814933 0 0 1 20.241067-10.513067m-47.786667-262.178133a53.589333 53.589333 0 0 0-45.9776 81.134933l-74.103467 55.1936a70.075733 70.075733 0 1 0 9.454934 88.4736l104.789333 58.5728v3.413333a53.521067 53.521067 0 1 0 9.796267-30.9248l-103.901867-58.026666a71.441067 71.441067 0 0 0 0.9216-11.537067 70.4512 70.4512 0 0 0-4.949333-25.941333l79.4624-59.1872a53.589333 53.589333 0 1 0 24.610133-101.205334z m0 0" fill="#515151" p-id="8375"></path></svg>