<?xml version="1.0" standalone="no"?><!DOCTYPE svg PUBLIC "-//W3C//DTD SVG 1.1//EN" "http://www.w3.org/Graphics/SVG/1.1/DTD/svg11.dtd"><svg t="1776263497571" class="icon" viewBox="0 0 1024 1024" version="1.1" xmlns="http://www.w3.org/2000/svg" p-id="49110" xmlns:xlink="http://www.w3.org/1999/xlink" width="200" height="200"><path d="M230.0928 254.1056c48.2304-144.384 208.5888-217.6512 383.1808-200.448 224.0512 22.1184 365.2096 181.5552 359.3728 404.736-4.4032 166.8096-95.8976 297.8816-285.2352 354.4576l-4.7616 1.3824 0.7168 2.56c1.9456 6.1952 5.2224 13.9776 9.6256 22.7328l1.9456 3.84c4.352 8.192 9.472 17.0496 15.2576 26.2144 5.2736 8.3968 10.9056 16.7424 16.5376 24.7808l5.7344 7.936c4.5056 6.2976 7.9872 10.8544 9.8816 13.2096a35.0208 35.0208 0 0 1 5.3248 35.072 35.5328 35.5328 0 0 1-61.1328 8.3456l-3.9424-5.12a669.184 669.184 0 0 1-32.512-46.848 453.2224 453.2224 0 0 1-18.0224-31.0784c-11.9296-22.8352-19.456-42.9056-21.248-61.0816-3.072-30.6176 11.008-56.9856 42.24-65.4336 168.4992-45.4144 244.992-151.3984 248.7296-292.864 4.864-186.2656-108.4416-314.2656-295.5776-332.8-144.8448-14.2336-272.64 44.1856-308.8384 152.576l-1.7408 5.3248a122.368 122.368 0 0 0-3.3792 15.0016l-2.2528 12.544c-2.7648 15.4624-5.5296 24.576-13.1072 33.8944l-4.8128 5.4272a11.52 11.52 0 0 1-2.8672 2.304l-6.0928 3.4304-19.1488 9.984-96.256 48.9472-12.9024 6.5024 29.44 38.1952 4.5568 6.2464c13.824 19.456 12.3392 40.8064 2.8672 67.0208-2.4064 6.656-5.4272 13.7728-9.216 22.016l-6.0416 12.5952-9.5744 19.3536c-4.1472 8.3968-7.2704 14.8992-10.0352 20.992l-1.3312 2.9696c-10.9568 24.6784-14.8992 41.5744-12.7488 50.8416 6.144 26.3168 15.1552 33.792 54.8352 42.8544l30.8224 6.6048c7.424 1.536 13.8752 3.0208 20.1728 4.5056l4.6592 1.1776c122.5216 30.5664 154.88 62.72 211.2512 209.7152a35.0208 35.0208 0 0 1-5.632 34.7136 35.584 35.584 0 0 1-60.6208-9.6768l-7.0656-18.176c-43.3152-110.08-61.7472-124.928-155.136-148.2752l-8.4992-2.048-9.1136-2.048-26.7264-5.632-10.6496-2.4576c-64-15.104-93.8496-37.376-107.3664-95.4368-6.5536-28.2112 0.256-57.3952 16.896-94.976l3.6864-8.1408 4.1472-8.704 20.7872-42.496c2.8672-6.0416 5.3248-12.288 7.2704-18.5856l0.8192-3.0208-24.7808-32-9.1136-12.0832c-2.5088-3.3792-4.9664-6.7584-7.424-10.24a54.3232 54.3232 0 0 1 19.7632-79.9744l70.9632-35.8912 63.488-32.4608 1.3824-8.0896a216.064 216.064 0 0 1 8.4992-34.9184h0.0512z" fill="#515151" p-id="49111"></path><path d="M471.9104 224c36.7616-46.1312 102.7072-58.4704 147.712-28.3648l1.8432 1.2288 1.8432-0.6144c44.7488-15.2576 106.5472 10.24 126.6176 52.3776l1.0752 2.3552 2.6112 0.6656c45.824 12.288 87.1936 62.208 79.9744 103.6288l-0.256 1.1776 0.6144 1.024c37.2224 63.744-0.4096 172.9536-76.4928 173.6704l3.2768-0.1536c-12.3392 16.4864-27.0848 30.8224-50.6368 50.7904l-12.8 10.8032a262.8608 262.8608 0 0 0-60.0064 71.7312 36.1472 36.1472 0 0 1-43.6736 15.9744 29.8496 29.8496 0 0 1-16.384-41.6768c11.776-23.04 26.2144-43.7248 43.3152-62.0544a103.3728 103.3728 0 0 1-12.3904-4.5568l-3.1232-1.4336c-42.24-19.712-69.7344-58.9824-67.1232-102.2464v-0.3072l-7.2192-2.048a242.2784 242.2784 0 0 1-57.856-26.3168l-4.864-3.1744C428.6976 409.9584 407.04 374.272 416.1536 335.2064l-0.8192-1.7408c-17.92-40.7552 7.7312-100.1984 52.736-106.9568l2.048-0.256z m120.32 30.1568c-19.2-20.48-62.6176-12.544-79.2064 19.8656l-1.2288 2.2528a30.1568 30.1568 0 0 1-33.9456 13.568c-1.7408-0.256-2.7136 0.768-4.6592 5.632a23.7056 23.7056 0 0 0-1.7408 10.5472c0 0.6656-0.1024 0.6144-0.4608 0.3072l0.0512 0.0512 0.8704 0.8192c8.704 8.6016 11.6224 21.504 7.936 33.0752l-1.9968 4.8128-0.6144 1.3824c-4.096 10.0864 2.4576 21.9648 24.2176 36.6592 23.3984 15.8208 57.088 27.136 74.8544 26.8288l2.304 0.0512c22.1184 1.28 35.9424 26.2656 25.088 46.9504l-1.024 2.2528c-9.1136 20.3776 2.1504 41.472 27.5456 53.2992 22.2208 10.4448 31.5904 6.8096 31.4368-8.8064l0.0512-2.3552a31.232 31.232 0 0 1 28.672-29.7984l62.7712-4.096h4.7104c24.7808-2.0992 40.96-62.5664 19.0976-82.7392l-1.8944-1.8944a32.768 32.768 0 0 1-3.8912-38.5536l0.6144-1.024-0.512-1.4336a44.8 44.8 0 0 0-5.9904-9.6256l-1.6896-2.048c-10.5472-12.3392-24.2688-19.0976-32.4096-17.5104a29.952 29.952 0 0 1-26.9312-8.2432 32.5632 32.5632 0 0 1-9.1136-27.5968c0.2048-1.6896-7.0144-10.24-21.4016-16.4864-15.872-6.8096-30.208-6.1952-34.3552-1.8944a30.0544 30.0544 0 0 1-45.4656-2.2528z" fill="#515151" p-id="49112"></path></svg>