<?xml version="1.0" standalone="no"?><!DOCTYPE svg PUBLIC "-//W3C//DTD SVG 1.1//EN" "http://www.w3.org/Graphics/SVG/1.1/DTD/svg11.dtd"><svg t="1776260832846" class="icon" viewBox="0 0 1024 1024" version="1.1" xmlns="http://www.w3.org/2000/svg" p-id="8811" xmlns:xlink="http://www.w3.org/1999/xlink" width="200" height="200"><path d="M192 96A96 96 0 0 0 96 192v149.312a32 32 0 1 0 64 0V192a32 32 0 0 1 32-32h640a32 32 0 0 1 32 32v149.312a32 32 0 0 0 64 0V192A96 96 0 0 0 832 96H192zM160 682.688a32 32 0 1 0-64 0V832A96 96 0 0 0 192 928h640a96 96 0 0 0 96-96v-149.312a32 32 0 1 0-64 0V832a32 32 0 0 1-32 32H192a32 32 0 0 1-32-32v-149.312z" fill="#515151" p-id="8812"></path><path d="M431.488 309.696a32 32 0 0 1 24.512 18.816l129.088 295.04 115.584-132.608a32 32 0 0 1 24.128-10.944h192.512a32 32 0 1 1 0 64h-177.92l-139.264 159.68a32 32 0 0 1-53.44-8.192L417.664 400.64l-114.56 132.288a32 32 0 0 1-24.192 11.072H106.688a32 32 0 0 1 0-64H264.32l138.176-159.616a32 32 0 0 1 28.992-10.688z" fill="#515151" p-id="8813"></path></svg>